# xmcd CD database file
# Copyright (C) 1993-1998 Ti Kan
#
# Track frame offsets:
#	217
#	14755
#	24655
#	44605
#	57055
#	67705
#	80005
#	97257
#	109257
#	124407
#	148407
#	176082
#	192132
#	207582
#	225432
#	245982
#	256632
#
# Disc length: 3785 seconds
#
# Revision: 1
# Processed by: cddbd v1.4b41PL1 Copyright (c) Steve Scherf et al.
# Submitted via: NotifyCDPlayer(CDDB) 1.07
#
DISCID=010ec711
DTITLE=Glen Campbell - The Rhinestone Cowboy - Live in Concert
DYEAR=1900
DGENRE=
TTITLE0=Rhinestone Cowboy
TTITLE1=Gentle On My Mind
TTITLE2=MEDLEY: Wichita Lineman/Country Boy
TTITLE3=By The Time I Get To Phoenix
TTITLE4=Dreams Of The Everyday Housewife
TTITLE5=Heartache No. 3
TTITLE6=Please Come Home To Boston
TTITLE7=Crying
TTITLE8=It's Only Make Believe
TTITLE9=Blue Grass Medley (Instrumental)
TTITLE10=Milk Cow Blues
TTITLE11=Rollin' (In My Sweet Baby's Arms)
TTITLE12=I'm So Lonesome I Could Cry
TTITLE13=Southern Nights
TTITLE14=Amazing Grace
TTITLE15=Try A Little Kindness
TTITLE16=Mull Of Kintyre
EXTD=
EXTT0=
EXTT1=
EXTT2=
EXTT3=
EXTT4=
EXTT5=
EXTT6=
EXTT7=
EXTT8=
EXTT9=
EXTT10=
EXTT11=
EXTT12=
EXTT13=
EXTT14=
EXTT15=
EXTT16=
PLAYORDER=
